<svg width="15" height="8" viewBox="0 0 15 8" fill="none" xmlns="http://www.w3.org/2000/svg">
<path d="M7.10023 8C6.89574 8 6.71578 7.92638 6.56036 7.77096L0.220889 1.28425C0.0736494 1.14519 2.95639e-05 0.965235 2.95639e-05 0.752556C2.95639e-05 0.327198 0.319048 0 0.744407 0C0.957086 0 1.13704 0.0899796 1.2761 0.220859L7.10023 6.17587L12.9244 0.220859C13.0634 0.0899796 13.2516 0 13.4561 0C13.8814 0 14.2004 0.327198 14.2004 0.752556C14.2004 0.965235 14.1268 1.14519 13.9878 1.28425L7.64011 7.77096C7.49287 7.92638 7.30473 8 7.10023 8Z" fill="#131249"/>
</svg>
